<svg width="70" height="70" viewBox="0 0 70 70" fill="none" xmlns="http://www.w3.org/2000/svg">
<mask id="path-1-outside-1_621_141" maskUnits="userSpaceOnUse" x="0" y="0" width="70" height="66" fill="black">
<rect fill="white" width="70" height="66"/>
<path d="M13.8334 3C7.85026 3 3 7.69869 3 13.4948V53.75C3 58.8586 7.14137 63 12.25 63H23.6576H47.5H57C62.5228 63 67 58.5228 67 53V13.4948C67 7.6987 62.1497 3 56.1666 3H13.8334Z"/>
</mask>
<path d="M13.8334 3C7.85026 3 3 7.69869 3 13.4948V53.75C3 58.8586 7.14137 63 12.25 63H23.6576H47.5H57C62.5228 63 67 58.5228 67 53V13.4948C67 7.6987 62.1497 3 56.1666 3H13.8334Z" fill="black"/>
<path d="M5.68041 13.4948C5.68041 9.25862 9.24976 5.68041 13.8334 5.68041V0.319588C6.45075 0.319588 0.319588 6.13877 0.319588 13.4948H5.68041ZM13.8334 5.68041H56.1666V0.319588H13.8334V5.68041ZM56.1666 5.68041C60.7502 5.68041 64.3196 9.25862 64.3196 13.4948H69.6804C69.6804 6.13877 63.5492 0.319588 56.1666 0.319588V5.68041ZM64.3196 13.4948V53H69.6804V13.4948H64.3196ZM5.68041 53.75V13.4948H0.319588V53.75H5.68041ZM12.25 65.6804H23.6576V60.3196H12.25V65.6804ZM57 60.3196H47.5V65.6804H57V60.3196ZM23.6576 65.6804H47.5V60.3196H23.6576V65.6804ZM0.319588 53.75C0.319588 60.339 5.66102 65.6804 12.25 65.6804V60.3196C8.62172 60.3196 5.68041 57.3783 5.68041 53.75H0.319588ZM64.3196 53C64.3196 57.0425 61.0425 60.3196 57 60.3196V65.6804C64.0032 65.6804 69.6804 60.0032 69.6804 53H64.3196Z" fill="white" mask="url(#path-1-outside-1_621_141)"/>
<path d="M26.44 15H15V30.4H26.44C30.158 30.4 33.656 27.936 33.656 22.7C33.656 17.464 30.158 15 26.44 15ZM24.68 25.56H20.72V19.84H24.68C25.912 19.84 27.936 19.84 27.936 22.7C27.936 25.56 25.912 25.56 24.68 25.56Z" fill="white"/>
<path d="M49.9379 30.4H56.2299L49.8499 15H41.3579L34.9779 30.4H41.2699L42.3259 27.628H48.8819L49.9379 30.4ZM43.8219 23.668L45.6039 18.96L47.3859 23.668H43.8219Z" fill="white"/>
<path d="M31.786 43.798C32.534 42.918 32.996 41.906 32.996 40.916C32.996 38.584 31.918 37 28.42 37H15V52.4H29.08C32.578 52.4 34.096 50.376 34.096 47.846C34.096 46.174 33.128 44.766 31.786 43.798ZM20.72 40.74H26C26.572 40.74 27.276 40.74 27.276 41.576C27.276 42.412 26.572 42.412 26 42.412H20.72V40.74ZM27.1 48.22H20.72V46.592H27.1C27.672 46.592 28.376 46.592 28.376 47.406C28.376 48.22 27.672 48.22 27.1 48.22Z" fill="white"/>
<path d="M51.0551 52.4H57.3471L50.9671 37H42.4751L36.0951 52.4H42.3871L43.4431 49.628H49.9991L51.0551 52.4ZM44.9391 45.668L46.7211 40.96L48.5031 45.668H44.9391Z" fill="white"/>
<rect x="24" y="61" width="21" height="4" fill="white"/>
</svg>
